#!OML:ASF H:\Terrain\Patient Classification 1\Walking\liu\liu.ASF
:FULLY-SPECIFIED
:DEGREES
66
root 0.0194 16.4047 15.6228 6.341 0.0324 0.67458
lowerback -2.79973 -1.30595 -2.6009
upperback 0.235967 -1.69894 2.37157
thorax 1.96106 -0.889729 3.82607
lowerneck -22.9336 -3.65306 -11.8556
upperneck 22.9885 -4.03323 11.2639
head 11.8202 -1.4265 5.57429
rclavicle -6.11263e-015 1.11319e-014
rhumerus -39.5185 14.0089 -87.295
rradius 35.7511
rwrist -17.8973
rhand -32.5854 -24.1351
rfingers 7.12502
rthumb -5.81393 -54.0353
lclavicle -6.11263e-015 1.11319e-014
lhumerus -30.4993 -3.60128 86.087
lradius 20.4359
lwrist -5.84282
lhand -12.4018 -26.931
lfingers 7.12502
lthumb 13.6698 2.60008
rfemur -26.585 -4.13069 21.2428
rtibia 67.546
rfoot -8.58355 -10.5033
rtoes -13.307
lfemur -17.0972 2.27188 -26.6379
ltibia 25.8384
lfoot -13.8069 2.8184
ltoes -3.18595
67
root 0.0194 16.4002 15.8015 6.44704 0.0324 0.544252
lowerback -2.99899 -1.53075 -2.48262
upperback 0.286301 -2.0007 2.38471
thorax 2.14723 -1.04325 3.75206
lowerneck -23.8666 -3.52228 -10.8933
upperneck 23.7306 -3.90411 10.3949
head 12.2279 -1.37522 5.12828
rclavicle -2.61402e-014 2.14687e-014
rhumerus -39.6878 13.4868 -86.9764
rradius 35.3824
rwrist -16.9259
rhand -30.206 -24.4798
rfingers 7.12502
rthumb -3.51642 -54.4305
lclavicle -2.61402e-014 2.14687e-014
lhumerus -29.5078 -4.5211 86.1009
lradius 21.0448
lwrist -4.8983
lhand -13.3344 -27.0538
lfingers 7.12502
lthumb 12.7708 2.53561
rfemur -27.8256 -3.99018 21.5972
rtibia 66.6694
rfoot -10.0083 -10.1948
rtoes -11.635
lfemur -16.5012 1.77714 -26.4789
ltibia 25.8227
lfoot -14.1057 2.99312
ltoes -2.20204
68
root 0.0194 16.3969 15.9802 6.55067 0.0324 0.476682
lowerback -3.12255 -1.7835 -2.4657
upperback 0.240059 -2.33932 2.50374
thorax 2.2021 -1.21345 3.84466
lowerneck -23.0093 -3.18421 -11.1947
upperneck 23.1325 -3.51995 10.948
head 11.7957 -1.17495 5.42889
rclavicle -2.40529e-014 -2.38542e-015
rhumerus -40.2756 13.6629 -86.9256
rradius 35.0375
rwrist -16.755
rhand -30.0344 -24.8427
rfingers 7.12502
rthumb -3.3507 -54.7961
lclavicle -2.40529e-014 -2.38542e-015
lhumerus -28.6551 -5.25235 86.2772
lradius 21.6236
lwrist -3.85288
lhand -14.3261 -27.3985
lfingers 7.12502
lthumb 11.8146 2.2482
rfemur -29.1117 -3.79146 21.8253
rtibia 65.793
rfoot -11.2535 -10.0534
rtoes -9.46162
lfemur -15.8857 1.48826 -26.3919
ltibia 25.7481
lfoot -14.6105 2.72854
ltoes 0.120453
69
root 0.0194 16.3839 16.1589 6.4906 0.0324 0.596422
lowerback -3.03381 -1.9864 -2.62683
upperback 0.208968 -2.60772 2.60518
thorax 2.15567 -1.34919 4.02929
lowerneck -22.8404 -3.13802 -11.4474
upperneck 23.1331 -3.42986 11.1229
head 11.7592 -1.13957 5.55456
rclavicle 2.54444e-014 5.56597e-015
rhumerus -40.9023 13.8105 -86.7798
rradius 34.7957
rwrist -16.4718
rhand -30.2156 -25.6771
rfingers 7.12502
rthumb -3.52562 -55.6277
lclavicle 2.54444e-014 5.56597e-015
lhumerus -27.7208 -5.99466 86.5769
lradius 22.1312
lwrist -2.9678
lhand -13.4722 -26.3472
lfingers 7.12502
lthumb 12.638 3.25043
rfemur -30.1049 -3.87723 21.8775
rtibia 64.8477
rfoot -11.9884 -10.1359
rtoes -7.56637
lfemur -15.0073 1.37425 -26.5485
ltibia 25.4996
lfoot -15.1488 2.4206
ltoes 0.396792
70
root 0.0194 16.3615 16.3376 6.44499 0.0324 0.910929
lowerback -2.95749 -2.13073 -2.98296
upperback 0.205896 -2.78774 2.54289
thorax 2.14022 -1.44267 4.1584
lowerneck -22.945 -3.24511 -11.42
upperneck 23.2813 -3.56716 11.0358
head 11.8533 -1.20893 5.50081
rclavicle 3.01159e-014 -3.10104e-014
rhumerus -41.3431 13.583 -86.7064
rradius 34.4579
rwrist -16.2882
rhand -30.3902 -24.9291
rfingers 7.12502
rthumb -3.69431 -54.8768
lclavicle 3.01159e-014 -3.10104e-014
lhumerus -26.7307 -6.71221 86.611
lradius 22.7404
lwrist -2.58436
lhand -11.7604 -24.949
lfingers 7.12502
lthumb 14.2879 4.53942
rfemur -31.0489 -4.31888 21.9095
rtibia 63.9025
rfoot -12.7026 -10.4923
rtoes -12.3126
lfemur -14.1368 1.07511 -26.8955
ltibia 25.1616
lfoot -15.8128 2.42198
ltoes 0.663876
71
root 0.0194 16.3617 16.5162 6.50348 0.0324 1.15205
lowerback -2.97824 -2.23853 -3.25915
upperback 0.209783 -2.9195 2.4524
thorax 2.17778 -1.51193 4.21198
lowerneck -23.2657 -3.30549 -11.2128
upperneck 23.5127 -3.65291 10.8333
head 12.0085 -1.24868 5.38478
rclavicle -6.5102e-015 1.35174e-014
rhumerus -41.7784 13.3065 -86.7237
rradius 34.1341
rwrist -16.2752
rhand -28.9507 -26.0983
rfingers 7.12502
rthumb -2.30413 -56.0656
lclavicle -6.5102e-015 1.35174e-014
lhumerus -25.6797 -7.56069 86.5024
lradius 23.4091
lwrist -2.30704
lhand -11.1526 -24.7336
lfingers 7.12502
lthumb 14.8735 4.71248
rfemur -32.3076 -3.66266 21.5327
rtibia 62.5011
rfoot -13.6538 -10.5545
rtoes -13.8762
lfemur -13.3116 0.940463 -27.1232
ltibia 24.7026
lfoot -16.148 2.15171
ltoes 2.56483
72
root 0.0194 16.3522 16.6949 6.52885 0.0324 1.46818
lowerback -2.91589 -2.38999 -3.60363
upperback 0.170113 -3.11002 2.39678
thorax 2.13628 -1.60931 4.34103
lowerneck -23.8868 -3.24903 -10.5392
upperneck 24.0522 -3.5892 10.1217
head 12.3019 -1.23988 5.028
rclavicle 4.36332e-014 3.97569e-015
rhumerus -42.4205 13.3817 -86.743
rradius 33.9985
rwrist -16.4379
rhand -25.5885 -29.5088
rfingers 7.12502
rthumb 0.943196 -59.4865
lclavicle 4.36332e-014 3.97569e-015
lhumerus -24.8152 -8.66649 86.5546
lradius 24.1699
lwrist -1.23021
lhand -11.4508 -24.9738
lfingers 7.12502
lthumb 14.5862 4.49331
rfemur -33.1865 -3.37643 21.1613
rtibia 60.9617
rfoot -13.6989 -10.8145
rtoes -13.0941
lfemur -12.4316 0.98155 -27.4616
ltibia 24.2187
lfoot -16.4265 1.85043
ltoes 2.04638
73
root 0.0194 16.3483 16.8736 6.46853 0.0324 1.64091
lowerback -2.71098 -2.54199 -3.79646
upperback 0.0886368 -3.31226 2.37961
thorax 1.96827 -1.70736 4.43136
lowerneck -23.1579 -3.19267 -10.7827
upperneck 23.4796 -3.58765 10.5744
head 11.9508 -1.215 5.21647
rclavicle 9.83984e-015 -1.74931e-014
rhumerus -43.1873 13.4655 -86.77
rradius 33.9187
rwrist -16.4656
rhand -24.317 -30.9901
rfingers 7.12502
rthumb 2.17124 -60.9588
lclavicle 9.83984e-015 -1.74931e-014
lhumerus -24.0807 -9.73157 86.6008
lradius 24.8552
lwrist 0.0439008
lhand -11.5229 -25.0997
lfingers 7.12502
lthumb 14.5167 4.37245
rfemur -33.8655 -3.28352 20.9789
rtibia 59.1291
rfoot -13.7627 -10.3792
rtoes -13.0169
lfemur -11.3637 0.963657 -27.6623
ltibia 23.6185
lfoot -16.9124 1.79859
ltoes 0.504872
74
root 0.0194 16.3375 17.0523 6.41567 0.0324 1.50739
lowerback -2.59973 -2.62524 -3.70951
upperback 0.0666063 -3.43156 2.48542
thorax 1.89729 -1.76504 4.4914
lowerneck -22.836 -3.28783 -11.3093
upperneck 23.1667 -3.67504 11.0393
head 11.801 -1.2486 5.45839
rclavicle -8.15017e-015 3.18055e-015
rhumerus -43.834 13.414 -86.6488
rradius 33.7518
rwrist -16.6324
rhand -25.0613 -30.5785
rfingers 7.12502
rthumb 1.45233 -60.5533
lclavicle -8.15017e-015 3.18055e-015
lhumerus -23.2736 -10.7779 86.7035
lradius 25.6936
lwrist 1.00736
lhand -11.4547 -25.0754
lfingers 7.12502
lthumb 14.5825 4.39196
rfemur -34.5032 -3.08085 21.1563
rtibia 57.098
rfoot -14.1584 -9.75889
rtoes -17.2926
lfemur -10.2486 0.922803 -27.4871
ltibia 22.9258
lfoot -17.2193 1.38243
ltoes 2.16396
75
root 0.0194 16.3293 17.231 6.45529 0.0324 1.56964
lowerback -2.61018 -2.73891 -3.83803
upperback -0.0256485 -3.5813 2.59871
thorax 1.83943 -1.839 4.67556
lowerneck -22.6808 -3.38483 -11.894
upperneck 23.1463 -3.69648 11.3242
head 11.7848 -1.27956 5.66597
rclavicle 2.20651e-014 7.95139e-016
rhumerus -44.494 13.4898 -86.4943
rradius 33.4662
rwrist -16.855
rhand -25.3476 -30.7656
rfingers 7.12502
rthumb 1.17582 -60.7421
lclavicle 2.20651e-014 7.95139e-016
lhumerus -22.5963 -11.5655 86.8623
lradius 26.6401
lwrist 1.69691
lhand -11.5003 -24.8756
lfingers 7.12502
lthumb 14.5385 4.59493
rfemur -35.0819 -2.82169 21.0576
rtibia 54.9387
rfoot -14.5725 -9.54331
rtoes -21.2013
lfemur -9.18833 1.04547 -27.5058
ltibia 22.1073
lfoot -17.1968 0.82729
ltoes 3.82452
76
root 0.0194 16.3374 17.4097 6.47928 0.0324 1.70776
lowerback -2.59126 -2.88962 -4.00105
upperback -0.0470222 -3.77787 2.57234
thorax 1.83747 -1.93831 4.73075
lowerneck -22.7756 -3.28933 -11.6242
upperneck 23.2495 -3.60737 11.1552
head 11.8205 -1.23481 5.57317
rclavicle 2.99668e-014 1.66979e-014
rhumerus -44.9136 13.3048 -86.4289
rradius 33.2245
rwrist -16.4735
rhand -25.1909 -31.9501
rfingers 7.12502
rthumb 1.32723 -61.9257
lclavicle 2.99668e-014 1.66979e-014
lhumerus -21.7279 -12.3207 86.6809
lradius 27.3783
lwrist 2.41131
lhand -11.444 -24.7616
lfingers 7.12502
lthumb 14.5927 4.70506
rfemur -35.5525 -2.5681 20.7986
rtibia 52.6562
rfoot -14.8509 -9.1798
rtoes -22.9745
lfemur -8.09033 1.2309 -27.616
ltibia 21.2687
lfoot -17.2154 0.581653
ltoes 3.87853
